<svg width="66" height="66" viewBox="0 0 88 88" fill="none" xmlns="http://www.w3.org/2000/svg">
<path fill-rule="evenodd" clip-rule="evenodd" d="M75.6797 62.6299C75.6485 62.6527 75.6246 62.6778 75.5958 62.7042L75.5898 62.7342C75.5898 62.7342 75.621 62.6982 75.6797 62.6299Z" fill="#2CA07A"/>
<path fill-rule="evenodd" clip-rule="evenodd" d="M14.2615 24.4764C14.9218 24.7712 15.0824 24.8048 15.1867 24.4609C15.376 24.5783 15.4803 24.7868 15.6229 24.8563C15.4898 25.0517 15.3233 25.2422 15.1867 25.4376C14.9434 25.0709 14.4496 24.7017 14.2615 24.4764ZM17.2491 19.9249C17.8974 20.5732 18.7435 21.0658 19.429 21.7549C18.1203 21.5691 17.5918 22.0077 17.2491 21.5475C17.0274 20.886 16.7362 20.3611 17.2491 19.9249ZM13.304 22.1875C13.2057 21.8088 12.3536 21.7429 12.0265 22.2234C11.7113 22.7388 12.9145 24.3434 12.9145 24.3434C12.9145 24.3434 15.8542 27.1944 15.6876 27.6187C15.2334 29.3983 17.6566 28.7919 16.5588 26.8073C15.5761 26.2069 16.1502 26.165 16.7865 26.443C16.8848 26.2477 16.9411 26.274 17.0142 25.9912C16.9339 25.7911 16.4713 25.1811 16.4474 24.9043C16.5636 24.9474 16.5552 24.6874 16.6631 24.7509C16.8333 24.8527 17.1568 25.2218 17.3797 25.2674C17.4624 25.0133 17.5463 24.7653 17.6266 24.5148C17.6098 24.4129 15.527 21.4145 15.4743 22.9952C15.3904 24.4261 15.0944 21.1293 15.0944 21.1293C15.9285 21.8843 19.0455 24.6658 18.5889 25.9481C18.9436 26.2477 19.2313 25.7228 19.5213 25.2674C18.8849 23.8916 18.0029 22.9593 18.5338 22.7352C19.1941 22.2953 19.5213 22.0293 20.8024 23.0611C21.4783 22.5961 21.6017 22.2474 21.6017 22.2474C19.9168 20.886 18.1875 19.823 16.9471 18.0722C16.4893 17.2405 15.7954 16.4375 15.7643 16.6281C15.521 16.9349 15.4922 17.0991 15.3233 17.3999C15.6444 18.0506 15.0632 18.2244 14.7804 18.7672C14.8259 19.0201 14.959 19.4815 15.231 19.5774C15.5701 19.2394 15.7463 18.8907 16.0831 18.5563C16.2496 18.8871 16.7314 19.1376 16.898 19.4731C16.4833 20.0735 15.835 20.4186 15.1819 19.817C14.9865 19.9369 14.7612 20.0064 14.6438 20.2688C14.3538 19.9153 14.1009 19.672 13.7426 19.6744C13.3902 19.7643 13.3411 20.3503 13.3231 20.6068C13.5628 21.0286 13.6131 21.0981 13.854 21.5176C14.6378 22.3804 14.7217 23.3571 14.289 24.3338C14.2243 24.3063 13.2237 23.3871 13.304 22.1875Z" fill="#2CA07A"/>
<path fill-rule="evenodd" clip-rule="evenodd" d="M68.5179 23.4284C68.3321 23.4284 68.2866 23.6945 68.5694 23.9054C68.9961 24.1235 69.503 23.9078 69.515 23.7664C69.5054 23.444 68.7744 23.2762 68.5179 23.4284ZM73.6303 18.8769C73.6171 18.9991 76.2296 19.6439 76.2536 19.8464C76.6143 19.9603 77.2698 20.6302 77.1548 20.6206C77.1824 21.1359 77.1668 21.5134 76.7378 21.5625C76.7378 21.5625 76.087 21.6764 75.5813 21.5697C75.078 21.4583 72.6608 21.2881 72.6608 21.2881C72.6907 21.348 72.046 21.9077 71.901 21.9077C71.7931 21.9868 71.3138 22.1953 71.3138 22.1953C71.3138 22.1953 70.8859 22.5908 70.7961 22.7106C70.7002 22.8304 71.5055 23.4836 71.6266 23.5255C71.8087 24.0888 72.1658 23.8611 71.4636 24.5597C71.4108 24.9229 69.9464 24.247 69.678 24.8953C69.5581 24.936 69.0548 25.1158 68.7612 25.0367C68.1811 24.9193 67.2488 24.2493 67.3782 23.0773C67.3782 23.0773 67.999 21.9113 68.6042 22.3918C69.213 22.8748 69.6264 22.5716 69.7463 22.4517C69.8661 22.3343 70.8392 21.475 70.8392 21.475C70.8392 21.475 70.5899 21.221 70.4569 21.1934C69.6971 20.5667 70.7134 19.8488 71.0369 20.0681C71.2706 20.6841 72.9232 20.3641 73.1977 20.3078C73.9814 20.3977 74.6058 20.4828 75.3895 20.5702C75.4135 20.4756 75.4543 20.4696 75.4818 20.3737C75.4603 20.1975 73.0311 19.59 72.6021 19.6007C72.1203 17.8523 73.3523 18.4814 73.6303 18.8769Z" fill="#2CA07A"/>
<path fill-rule="evenodd" clip-rule="evenodd" d="M28.8285 13.2396C28.0627 12.1059 29.0046 11.1136 30.0209 11.5331C30.6165 12.3108 29.9118 13.0527 28.8285 13.2396Z" fill="#2CA07A"/>
<path fill-rule="evenodd" clip-rule="evenodd" d="M29.7208 8.06442C29.6405 8.0045 30.4985 7.45922 30.8605 7.95057C31.1073 8.69238 32.3009 13.0054 33.0176 13.0306C33.4191 13.6789 33.1914 13.643 32.978 13.8527C32.2278 13.9402 32.4987 13.9713 32.2278 13.8803C31.7401 14.3321 31.2547 14.7851 30.767 15.2357C30.0168 15.5616 29.6656 15.0535 29.74 14.6988C30.616 14.2542 31.1349 13.9474 31.5855 13.1301C31.0546 11.5374 30.2421 9.85363 29.7208 8.06442Z" fill="#2CA07A"/>
<path fill-rule="evenodd" clip-rule="evenodd" d="M32.9186 6.57348C32.8071 6.61663 32.7029 6.65857 32.5914 6.70291C32.4992 6.99652 32.4836 7.21942 32.4956 7.47828C33.1223 9.22196 33.5573 11.119 34.4526 12.7537C34.7426 13.1923 35.1596 13.3313 35.5215 13.2786C36.1639 13.1012 36.666 12.8471 37.0399 12.5787C37.0807 12.055 37.3419 11.6811 36.7679 11.4258C36.4383 11.596 36.3305 11.608 36.0644 11.874C35.8487 12.2252 35.6965 12.1305 35.355 12.1748C35.1081 11.7386 34.7773 11.0411 34.6719 10.4983C35.1908 9.34299 36.1663 8.34712 35.9218 7.20145C35.7552 6.87908 35.5551 6.62022 35.3142 6.61423C35.1596 6.62741 34.836 6.83593 34.5736 6.87908C34.7462 7.88574 35.0182 8.25125 34.413 8.59279C34.1566 8.62755 33.9157 8.84805 33.7671 8.48014C33.4807 7.84379 33.2026 7.20984 32.9186 6.57348Z" fill="#2CA07A"/>
<path fill-rule="evenodd" clip-rule="evenodd" d="M53.5214 10.0851C53.9313 8.78718 54.3543 8.16881 55.1177 6.49823C55.1944 6.27773 55.3334 6.08718 55.5455 5.95176C55.8427 5.97573 56.1447 5.98891 56.3365 6.20342C56.1364 7.12979 55.5983 7.90995 55.4413 8.63858C55.5096 8.79917 55.7073 8.9262 55.8739 8.89983C56.2598 8.69371 56.6756 8.36894 57.0004 7.77094C57.2569 7.69903 57.2844 7.77094 57.3551 8.01781C56.9573 9.43552 55.7073 10.7933 54.5988 11.4992C54.1362 12.6245 53.2866 13.5472 52.1013 13.7558C51.5788 13.4957 51.477 13.1494 51.9252 12.386C52.1601 12.2542 52.1996 12.1307 52.4381 11.9977C52.6778 11.812 52.8851 11.5711 52.7065 11.3901C52.3146 11.2583 51.7957 11.2871 51.3667 11.5171C50.9557 11.3278 50.7004 11.0498 50.6033 10.6735C50.0053 9.78785 52.9282 10.4314 53.5214 10.0851Z" fill="#2CA07A"/>
<path fill-rule="evenodd" clip-rule="evenodd" d="M54.7468 12.5064C54.8079 12.4585 56.0123 12.6191 56.5768 12.957C57.0154 13.4352 55.5893 14.3771 55.0644 14.3496C54.7744 14.2106 54.8463 13.9313 54.9661 13.6293C55.062 13.5083 55.1579 13.3849 55.2525 13.265C55.0896 13.2171 54.488 12.7113 54.7468 12.5064Z" fill="#2CA07A"/>
<path fill-rule="evenodd" clip-rule="evenodd" d="M70.5678 17.1046C70.2586 17.6019 70.6265 18.0058 71.0651 18.2179C70.1915 18.6421 69.4808 18.4959 69.2651 17.4689C69.355 16.5905 70.0093 16.8026 70.5678 17.1046Z" fill="#2CA07A"/>
<path fill-rule="evenodd" clip-rule="evenodd" d="M43.967 85.8285C20.9661 85.8285 2.20027 67.0639 2.20027 44.0617C2.20027 21.0548 20.9661 2.29494 43.967 2.29494C66.974 2.29494 85.7338 21.0548 85.7338 44.0617C85.7338 67.0639 66.974 85.8285 43.967 85.8285ZM44.0006 87.9976C68.2335 87.9976 88 68.2311 88 43.9982C88 19.7665 68.2335 0 44.0006 0C19.7689 0 0 19.7665 0 43.9982C0 68.2311 19.7689 87.9976 44.0006 87.9976Z" fill="#2CA07A"/>
<path fill-rule="evenodd" clip-rule="evenodd" d="M75.6797 62.6299C75.6485 62.6527 75.6246 62.6778 75.5958 62.7042L75.5898 62.7342C75.5898 62.7342 75.621 62.6982 75.6797 62.6299Z" fill="#A8D5BA"/>
<path fill-rule="evenodd" clip-rule="evenodd" d="M14.2615 24.4764C14.9218 24.7712 15.0824 24.8048 15.1867 24.4609C15.376 24.5783 15.4803 24.7868 15.6229 24.8563C15.4898 25.0517 15.3233 25.2422 15.1867 25.4376C14.9434 25.0709 14.4496 24.7017 14.2615 24.4764ZM17.2491 19.9249C17.8974 20.5732 18.7435 21.0658 19.429 21.7549C18.1203 21.5691 17.5918 22.0077 17.2491 21.5475C17.0274 20.886 16.7362 20.3611 17.2491 19.9249ZM13.304 22.1875C13.2057 21.8088 12.3536 21.7429 12.0265 22.2234C11.7113 22.7388 12.9145 24.3434 12.9145 24.3434C12.9145 24.3434 15.8542 27.1944 15.6876 27.6187C15.2334 29.3983 17.6566 28.7919 16.5588 26.8073C15.5761 26.2069 16.1502 26.165 16.7865 26.443C16.8848 26.2477 16.9411 26.274 17.0142 25.9912C16.9339 25.7911 16.4713 25.1811 16.4474 24.9043C16.5636 24.9474 16.5552 24.6874 16.6631 24.7509C16.8333 24.8527 17.1568 25.2218 17.3797 25.2674C17.4624 25.0133 17.5463 24.7653 17.6266 24.5148C17.6098 24.4129 15.527 21.4145 15.4743 22.9952C15.3904 24.4261 15.0944 21.1293 15.0944 21.1293C15.9285 21.8843 19.0455 24.6658 18.5889 25.9481C18.9436 26.2477 19.2313 25.7228 19.5213 25.2674C18.8849 23.8916 18.0029 22.9593 18.5338 22.7352C19.1941 22.2953 19.5213 22.0293 20.8024 23.0611C21.4783 22.5961 21.6017 22.2474 21.6017 22.2474C19.9168 20.886 18.1875 19.823 16.9471 18.0722C16.4893 17.2405 15.7954 16.4375 15.7643 16.6281C15.521 16.9349 15.4922 17.0991 15.3233 17.3999C15.6444 18.0506 15.0632 18.2244 14.7804 18.7672C14.8259 19.0201 14.959 19.4815 15.231 19.5774C15.5701 19.2394 15.7463 18.8907 16.0831 18.5563C16.2496 18.8871 16.7314 19.1376 16.898 19.4731C16.4833 20.0735 15.835 20.4186 15.1819 19.817C14.9865 19.9369 14.7612 20.0064 14.6438 20.2688C14.3538 19.9153 14.1009 19.672 13.7426 19.6744C13.3902 19.7643 13.3411 20.3503 13.3231 20.6068C13.5628 21.0286 13.6131 21.0981 13.854 21.5176C14.6378 22.3804 14.7217 23.3571 14.289 24.3338C14.2243 24.3063 13.2237 23.3871 13.304 22.1875Z" fill="#A8D5BA"/>
<path fill-rule="evenodd" clip-rule="evenodd" d="M68.5179 23.4284C68.3321 23.4284 68.2866 23.6945 68.5694 23.9054C68.9961 24.1235 69.503 23.9078 69.515 23.7664C69.5054 23.444 68.7744 23.2762 68.5179 23.4284ZM73.6303 18.8769C73.6171 18.9991 76.2296 19.6439 76.2536 19.8464C76.6143 19.9603 77.2698 20.6302 77.1548 20.6206C77.1824 21.1359 77.1668 21.5134 76.7378 21.5625C76.7378 21.5625 76.087 21.6764 75.5813 21.5697C75.078 21.4583 72.6608 21.2881 72.6608 21.2881C72.6907 21.348 72.046 21.9077 71.901 21.9077C71.7931 21.9868 71.3138 22.1953 71.3138 22.1953C71.3138 22.1953 70.8859 22.5908 70.7961 22.7106C70.7002 22.8304 71.5055 23.4836 71.6266 23.5255C71.8087 24.0888 72.1658 23.8611 71.4636 24.5597C71.4108 24.9229 69.9464 24.247 69.678 24.8953C69.5581 24.936 69.0548 25.1158 68.7612 25.0367C68.1811 24.9193 67.2488 24.2493 67.3782 23.0773C67.3782 23.0773 67.999 21.9113 68.6042 22.3918C69.213 22.8748 69.6264 22.5716 69.7463 22.4517C69.8661 22.3343 70.8392 21.475 70.8392 21.475C70.8392 21.475 70.5899 21.221 70.4569 21.1934C69.6971 20.5667 70.7134 19.8488 71.0369 20.0681C71.2706 20.6841 72.9232 20.3641 73.1977 20.3078C73.9814 20.3977 74.6058 20.4828 75.3895 20.5702C75.4135 20.4756 75.4543 20.4696 75.4818 20.3737C75.4603 20.1975 73.0311 19.59 72.6021 19.6007C72.1203 17.8523 73.3523 18.4814 73.6303 18.8769Z" fill="#A8D5BA"/>
<path fill-rule="evenodd" clip-rule="evenodd" d="M28.8285 13.2396C28.0627 12.1059 29.0046 11.1136 30.0209 11.5331C30.6165 12.3108 29.9118 13.0527 28.8285 13.2396Z" fill="#A8D5BA"/>
<path fill-rule="evenodd" clip-rule="evenodd" d="M29.7208 8.06442C29.6405 8.0045 30.4985 7.45922 30.8605 7.95057C31.1073 8.69238 32.3009 13.0054 33.0176 13.0306C33.4191 13.6789 33.1914 13.643 32.978 13.8527C32.2278 13.9402 32.4987 13.9713 32.2278 13.8803C31.7401 14.3321 31.2547 14.7851 30.767 15.2357C30.0168 15.5616 29.6656 15.0535 29.74 14.6988C30.616 14.2542 31.1349 13.9474 31.5855 13.1301C31.0546 11.5374 30.2421 9.85363 29.7208 8.06442Z" fill="#A8D5BA"/>
<path fill-rule="evenodd" clip-rule="evenodd" d="M32.9186 6.57348C32.8071 6.61663 32.7029 6.65857 32.5914 6.70291C32.4992 6.99652 32.4836 7.21942 32.4956 7.47828C33.1223 9.22196 33.5573 11.119 34.4526 12.7537C34.7426 13.1923 35.1596 13.3313 35.5215 13.2786C36.1639 13.1012 36.666 12.8471 37.0399 12.5787C37.0807 12.055 37.3419 11.6811 36.7679 11.4258C36.4383 11.596 36.3305 11.608 36.0644 11.874C35.8487 12.2252 35.6965 12.1305 35.355 12.1748C35.1081 11.7386 34.7773 11.0411 34.6719 10.4983C35.1908 9.34299 36.1663 8.34712 35.9218 7.20145C35.7552 6.87908 35.5551 6.62022 35.3142 6.61423C35.1596 6.62741 34.836 6.83593 34.5736 6.87908C34.7462 7.88574 35.0182 8.25125 34.413 8.59279C34.1566 8.62755 33.9157 8.84805 33.7671 8.48014C33.4807 7.84379 33.2026 7.20984 32.9186 6.57348Z" fill="#A8D5BA"/>
<path fill-rule="evenodd" clip-rule="evenodd" d="M53.5214 10.0851C53.9313 8.78718 54.3543 8.16881 55.1177 6.49823C55.1944 6.27773 55.3334 6.08718 55.5455 5.95176C55.8427 5.97573 56.1447 5.98891 56.3365 6.20342C56.1364 7.12979 55.5983 7.90995 55.4413 8.63858C55.5096 8.79917 55.7073 8.9262 55.8739 8.89983C56.2598 8.69371 56.6756 8.36894 57.0004 7.77094C57.2569 7.69903 57.2844 7.77094 57.3551 8.01781C56.9573 9.43552 55.7073 10.7933 54.5988 11.4992C54.1362 12.6245 53.2866 13.5472 52.1013 13.7558C51.5788 13.4957 51.477 13.1494 51.9252 12.386C52.1601 12.2542 52.1996 12.1307 52.4381 11.9977C52.6778 11.812 52.8851 11.5711 52.7065 11.3901C52.3146 11.2583 51.7957 11.2871 51.3667 11.5171C50.9557 11.3278 50.7004 11.0498 50.6033 10.6735C50.0053 9.78785 52.9282 10.4314 53.5214 10.0851Z" fill="#A8D5BA"/>
<path fill-rule="evenodd" clip-rule="evenodd" d="M54.7468 12.5064C54.8079 12.4585 56.0123 12.6191 56.5768 12.957C57.0154 13.4352 55.5893 14.3771 55.0644 14.3496C54.7744 14.2106 54.8463 13.9313 54.9661 13.6293C55.062 13.5083 55.1579 13.3849 55.2525 13.265C55.0896 13.2171 54.488 12.7113 54.7468 12.5064Z" fill="#A8D5BA"/>
<path fill-rule="evenodd" clip-rule="evenodd" d="M70.5678 17.1046C70.2586 17.6019 70.6265 18.0058 71.0651 18.2179C70.1915 18.6421 69.4808 18.4959 69.2651 17.4689C69.355 16.5905 70.0093 16.8026 70.5678 17.1046Z" fill="#A8D5BA"/>
<path fill-rule="evenodd" clip-rule="evenodd" d="M43.967 85.8285C20.9661 85.8285 2.20027 67.0639 2.20027 44.0617C2.20027 21.0548 20.9661 2.29494 43.967 2.29494C66.974 2.29494 85.7338 21.0548 85.7338 44.0617C85.7338 67.0639 66.974 85.8285 43.967 85.8285ZM44.0006 87.9976C68.2335 87.9976 88 68.2311 88 43.9982C88 19.7665 68.2335 0 44.0006 0C19.7689 0 0 19.7665 0 43.9982C0 68.2311 19.7689 87.9976 44.0006 87.9976Z" fill="#A8D5BA"/>
<path fill-rule="evenodd" clip-rule="evenodd" d="M44.1648 74.5425C35.861 74.5425 28.3219 71.1558 22.8619 65.6935C17.3972 60.2312 14.0081 52.6896 14.0081 44.3859C14.0081 27.7784 27.5573 14.2292 44.1648 14.2292C60.7723 14.2292 74.3214 27.7784 74.3214 44.3859C74.3214 52.6896 70.9311 60.2312 65.4712 65.6935C60.0101 71.1558 52.4685 74.5425 44.1648 74.5425ZM44.1648 73.7168C52.2432 73.7168 59.5751 70.4224 64.89 65.1087C70.2037 59.7962 73.4969 52.4643 73.4969 44.3859C73.4969 28.229 60.3217 15.0537 44.1648 15.0537C28.0103 15.0537 14.835 28.229 14.835 44.3859C14.835 52.4643 18.1259 59.7962 23.442 65.1087C28.7581 70.4224 36.0887 73.7168 44.1648 73.7168Z" fill="#A8D5BA"/>
<path fill-rule="evenodd" clip-rule="evenodd" d="M44.1648 15.2789C28.1158 15.2789 15.0579 28.3379 15.0579 44.3858C15.0579 52.1406 18.0959 59.4425 23.599 64.9528C29.1092 70.4582 36.4135 73.4926 44.1648 73.4926C51.9197 73.4926 59.2227 70.4582 64.733 64.9528C70.2373 59.4425 73.2716 52.1406 73.2716 44.3858C73.2716 28.3379 60.2138 15.2789 44.1648 15.2789ZM44.1648 73.942C36.2925 73.942 28.8755 70.8621 23.2814 65.268C17.6872 59.675 14.6061 52.2605 14.6061 44.3858C14.6061 28.0875 27.8689 14.8283 44.1648 14.8283C60.4643 14.8283 73.7222 28.0875 73.7222 44.3858C73.7222 52.2605 70.6411 59.675 65.0482 65.268C59.454 70.8621 52.0395 73.942 44.1648 73.942ZM44.1648 14.4544C27.6616 14.4544 14.2334 27.8825 14.2334 44.3858C14.2334 52.3575 17.3541 59.8691 23.0189 65.5328C28.6838 71.1977 36.1942 74.3159 44.1648 74.3159C52.1378 74.3159 59.6482 71.1977 65.313 65.5328C70.9779 59.8691 74.0997 52.3575 74.0997 44.3858C74.0997 27.8825 60.6704 14.4544 44.1648 14.4544ZM44.1648 74.7677C36.0744 74.7677 28.4489 71.6003 22.7014 65.8528C16.9466 60.1028 13.7852 52.4786 13.7852 44.3858C13.7852 27.6333 27.4123 14.0062 44.1648 14.0062C60.9209 14.0062 74.5467 27.6333 74.5467 44.3858C74.5467 52.4786 71.3793 60.1028 65.6318 65.8528C59.8831 71.6003 52.2588 74.7677 44.1648 74.7677Z" fill="#A8D5BA"/>
<path fill-rule="evenodd" clip-rule="evenodd" d="M53.0714 61.9055V66.6068H51.7736V63.5245C51.5662 63.6863 51.3589 63.8145 51.1648 63.9116C50.967 64.0135 50.7226 64.1069 50.423 64.198V63.1422C50.864 63.0008 51.2007 62.833 51.444 62.6365C51.6813 62.4376 51.8754 62.1955 52.0109 61.9055H53.0714ZM46.672 63.322L45.4568 63.1027C45.5586 62.718 45.7504 62.4208 46.0356 62.2159C46.3268 62.0097 46.7307 61.9055 47.258 61.9055C47.8608 61.9055 48.2958 62.0157 48.5654 62.2434C48.8327 62.4687 48.9681 62.7492 48.9681 63.0895C48.9681 63.292 48.9154 63.4706 48.8063 63.6312C48.6937 63.7942 48.5295 63.9368 48.309 64.0566C48.4899 64.1046 48.6254 64.1549 48.7176 64.2124C48.8722 64.3071 48.9909 64.4317 49.076 64.5863C49.1622 64.7421 49.2078 64.9243 49.2078 65.14C49.2078 65.4096 49.1323 65.6661 48.9945 65.9153C48.8519 66.161 48.6517 66.3504 48.3845 66.4858C48.1208 66.6176 47.7757 66.6847 47.3443 66.6847C46.9224 66.6847 46.5893 66.6332 46.346 66.5361C46.1063 66.4378 45.905 66.2928 45.7468 66.1047C45.5922 65.9129 45.47 65.6721 45.3873 65.3856L46.672 65.2179C46.7211 65.4743 46.8002 65.6517 46.9033 65.7536C47.0111 65.8506 47.1465 65.9022 47.3107 65.9022C47.4785 65.9022 47.6271 65.8422 47.7385 65.7128C47.8536 65.5882 47.9135 65.4204 47.9135 65.2107C47.9135 64.995 47.8572 64.8284 47.7457 64.7121C47.6367 64.5935 47.4881 64.5324 47.2975 64.5324C47.1957 64.5324 47.0567 64.5599 46.8829 64.6103L46.9488 63.6923C47.0183 63.7031 47.077 63.7103 47.113 63.7103C47.2807 63.7103 47.4234 63.6563 47.5348 63.5473C47.6499 63.4406 47.7026 63.3124 47.7026 63.1674C47.7026 63.026 47.663 62.9133 47.578 62.8294C47.4953 62.7456 47.3802 62.7048 47.2316 62.7048C47.0806 62.7048 46.9584 62.7492 46.8625 62.839C46.7678 62.9301 46.7055 63.0931 46.672 63.322ZM43.1091 63.5077C43.1091 63.2573 43.0456 63.0619 42.921 62.9205C42.7915 62.7755 42.6405 62.7048 42.4596 62.7048C42.2918 62.7048 42.1504 62.7683 42.0377 62.8978C41.9227 63.026 41.8628 63.2165 41.8628 63.4742C41.8628 63.733 41.9263 63.9332 42.0413 64.0686C42.16 64.204 42.305 64.2735 42.4799 64.2735C42.6573 64.2735 42.8095 64.204 42.9269 64.0746C43.0492 63.9428 43.1091 63.7534 43.1091 63.5077ZM40.747 65.5678L42.0222 65.4096C42.0545 65.5846 42.1108 65.7128 42.1923 65.7871C42.2714 65.8614 42.3709 65.8962 42.4859 65.8962C42.6897 65.8962 42.8514 65.7907 42.9665 65.5846C43.0492 65.43 43.1115 65.1052 43.1582 64.6103C43.0036 64.7697 42.8455 64.8835 42.6837 64.9566C42.5183 65.0309 42.3349 65.0657 42.1204 65.0657C41.7058 65.0657 41.3594 64.9207 41.073 64.6271C40.789 64.3298 40.6488 63.9595 40.6488 63.5113C40.6488 63.2034 40.7171 62.9241 40.8621 62.6713C41.0071 62.4184 41.2084 62.229 41.4649 62.0972C41.7154 61.9702 42.0377 61.9055 42.42 61.9055C42.885 61.9055 43.2529 61.987 43.5333 62.1452C43.8126 62.2998 44.0367 62.5538 44.2056 62.9002C44.3698 63.2441 44.4561 63.7031 44.4561 64.2711C44.4561 65.1016 44.2811 65.7164 43.9288 66.1047C43.5801 66.4882 43.0923 66.6847 42.4692 66.6847C42.1012 66.6847 41.8112 66.644 41.6003 66.5565C41.3858 66.4726 41.212 66.3468 41.0694 66.1826C40.928 66.0196 40.819 65.8159 40.747 65.5678ZM38.8596 61.9055V66.6068H37.5629V63.5245C37.352 63.6863 37.147 63.8145 36.9529 63.9116C36.7552 64.0135 36.5083 64.1069 36.2123 64.198V63.1422C36.6461 63.0008 36.9889 62.833 37.2333 62.6365C37.4694 62.4376 37.6612 62.1955 37.799 61.9055H38.8596Z" fill="#A8D5BA"/>
<path fill-rule="evenodd" clip-rule="evenodd" d="M50.3417 44.7206C50.3417 44.7206 49.6406 44.8357 49.3195 45.1365C49.3195 45.1365 48.9588 45.3725 49.1433 45.5619C49.1433 45.5619 50.005 45.6098 50.4675 45.2431C50.4675 45.2431 51.0584 44.8285 50.3417 44.7206Z" fill="#A8D5BA"/>
<path fill-rule="evenodd" clip-rule="evenodd" d="M50.3417 44.7206C50.3417 44.7206 49.6406 44.8357 49.3195 45.1365C49.3195 45.1365 48.9588 45.3725 49.1433 45.5619C49.1433 45.5619 50.005 45.6098 50.4675 45.2431C50.4675 45.2431 51.0584 44.8285 50.3417 44.7206Z" fill="#A8D5BA"/>
<path fill-rule="evenodd" clip-rule="evenodd" d="M50.3417 44.7206C50.3417 44.7206 49.6406 44.8357 49.3195 45.1365C49.3195 45.1365 48.9588 45.3725 49.1433 45.5619C49.1433 45.5619 50.005 45.6098 50.4675 45.2431C50.4675 45.2431 51.0584 44.8285 50.3417 44.7206Z" fill="#A8D5BA"/>
<path fill-rule="evenodd" clip-rule="evenodd" d="M46.6927 47.2766C46.6927 47.2766 47.6466 47.1831 48.0049 46.8212C48.0049 46.8212 48.3285 46.5132 48.446 46.8212C48.446 46.8212 48.4831 47.1316 48.9984 47.1951V47.8398C48.9984 47.8398 47.5196 47.4479 46.6927 48.1274V47.2766Z" fill="#A8D5BA"/>
<path fill-rule="evenodd" clip-rule="evenodd" d="M47.6219 32.9226C47.6219 32.9226 46.4091 33.5014 47.2612 34.8915C47.2612 34.8915 47.9491 35.3625 48.5483 34.7621C48.5483 34.7621 48.7269 34.5452 48.5483 34.2096C48.5483 34.2096 48.347 33.9184 48.1876 34.3247C48.1876 34.3247 48.3038 34.5452 47.9683 34.5452C47.9683 34.5452 47.4218 34.5811 47.4218 33.9963C47.4218 33.9963 47.5944 33.3995 48.0977 33.463C48.0977 33.463 48.8323 33.372 48.9989 33.8477V32.9226C48.9989 32.9226 48.1372 32.5367 47.6219 32.9226Z" fill="#A8D5BA"/>
<path fill-rule="evenodd" clip-rule="evenodd" d="M48.9988 45.9725V38.2368C48.2761 37.3224 46.6931 37.1378 46.6931 37.1378V37.6232C48.952 38.625 48.2893 41.0314 48.2893 41.0314C48.0604 41.7649 46.6931 43.6475 46.6931 43.6475V46.1582C47.1089 45.9665 47.8255 45.535 47.8255 45.535C48.4955 45.3553 48.9988 45.9725 48.9988 45.9725Z" fill="#A8D5BA"/>
<path fill-rule="evenodd" clip-rule="evenodd" d="M42.5626 32.7201L42.0222 32.2192C41.6734 31.9867 41.5991 32.6446 41.5991 32.6446C41.4829 34.767 39.8207 38.125 39.8207 38.125C39.5498 38.7829 39.0094 38.3203 39.0094 38.3203C38.3155 38.1633 38.8176 37.316 38.8176 37.316C41.3642 33.9569 40.825 31.9496 40.825 31.9496C40.7471 31.4474 40.8645 30.907 40.8645 30.907C41.0155 29.7086 40.4019 29.1297 40.4019 29.1297C40.2437 28.2405 40.7842 28.8205 40.7842 28.8205C41.0958 29.3227 41.556 29.9806 41.556 29.9806C41.556 30.2107 41.5991 30.9453 41.5991 30.9453C41.7537 31.2174 42.0965 31.8717 42.0965 31.8717C43.0252 32.6446 42.5626 32.7201 42.5626 32.7201ZM34.2217 30.249C34.2217 30.249 33.6417 31.0232 33.3361 31.2533C33.3361 31.2533 32.641 31.5217 33.0245 30.8686C33.0245 30.8686 34.03 30.5966 33.3361 29.8248C33.3361 29.8248 32.7585 29.2052 32.4469 30.0177C32.4469 30.0177 32.4098 30.3665 32.4865 30.7895C32.4865 30.7895 32.2156 31.2928 32.061 30.5594C32.061 30.5594 31.5205 28.7067 31.9436 27.9325C31.9436 27.9325 32.4098 27.9721 32.4098 28.473C32.4098 28.473 32.6039 29.4773 33.0245 28.7438C33.0245 28.7438 33.2582 27.7012 33.2582 27.1991C33.2582 27.1991 33.2582 26.8132 33.6417 26.5448C33.6417 26.5448 34.0672 25.7694 34.2217 25.3835C34.2217 25.3835 34.6843 24.8059 34.6484 25.5381C34.6484 25.5381 34.145 26.1589 34.3787 27.0062C34.3787 27.0062 34.4159 27.3537 34.1067 27.5466C34.1067 27.5466 33.4128 28.5126 33.6034 29.0914C33.6034 29.0914 33.8754 29.9422 34.3392 29.0123C34.3392 29.0123 35.1877 27.7791 35.2272 28.6659C35.2272 28.6659 34.4159 29.8632 34.2217 30.249ZM32.9502 35.6167L32.9059 37.1626C32.9059 37.1626 32.6782 38.0878 32.2516 37.1207C32.2516 37.1207 32.0982 36.0817 32.4098 35.6538C32.4098 35.6538 32.4469 33.764 31.4031 34.767C31.4031 34.767 30.5942 36.6977 30.5942 38.0099C30.5942 38.0099 30.0908 39.2071 29.82 38.0878C29.82 38.0878 30.4396 35.3075 30.5534 34.9588C30.5534 34.9588 30.5942 34.1498 30.8998 33.764C30.8998 33.764 31.7518 33.0305 32.0982 32.2971C32.0982 32.2971 32.7956 31.6787 32.6782 32.6039C32.6782 32.6039 31.8693 33.6849 32.6039 34.1882C32.6039 34.1882 33.2582 34.8449 32.9502 35.6167ZM29.2028 52.2973C29.2028 52.2973 28.8936 52.7994 28.6468 52.2973L28.6464 52.2053C28.6464 52.1778 28.6408 52.1451 28.6312 52.1115C28.6252 52.0756 28.6129 52.0371 28.5973 52.0011C28.5817 51.9652 28.5565 51.928 28.5326 51.8945C28.4463 51.7926 28.3004 51.7065 28.0536 51.7065C28.0536 51.7065 28.0297 51.6231 28.0752 51.5631C28.1064 51.5236 28.159 51.4955 28.2705 51.4955C28.2705 51.4955 28.2825 51.4872 28.3004 51.4716C28.3256 51.456 28.3565 51.4268 28.3937 51.3872C28.4608 51.3045 28.5473 51.1696 28.6036 50.9443C28.6036 50.9443 28.8757 50.3283 29.2028 50.9443V52.2973ZM46.3843 16.6004H43.5873C43.5873 16.6004 43.2577 16.6184 43.2577 16.9288V17.9906C43.2577 17.9906 43.2206 18.301 42.9485 18.301H40.7471C40.7471 18.301 40.4762 18.3561 40.4762 18.5694V19.3424C40.4762 19.3424 40.5565 19.6599 40.7962 19.6599H42.9665C42.9665 19.6599 43.2577 19.6312 43.2577 19.95V20.4437C43.2577 20.4437 43.2206 20.6846 43.0156 20.6846H40.8058C40.8058 20.6846 40.4762 20.7121 40.4762 21.0129V21.6193C40.4762 21.6193 40.457 21.8914 40.7471 21.8914H43.0468C43.0468 21.8914 43.2577 21.8914 43.2577 22.1023V23.4936C43.2577 23.4936 43.2757 23.7249 43.0252 23.7249H33.1815C33.1815 23.7249 32.6902 23.5955 32.5356 24.3697C32.381 25.1402 29.1249 38.0878 29.1249 38.0878C29.1249 38.0878 28.6647 41.5632 30.8267 42.8754C30.8267 42.8754 31.4438 43.8042 30.3629 43.3392L29.5516 42.915C29.5516 42.915 29.1058 42.5075 28.7762 43.2625C28.7762 43.2625 27.9301 44.8839 28.5102 46.2717L29.0482 47.9363C29.0482 47.9363 29.2424 48.7812 28.739 48.2802C28.739 48.2802 27.887 47.3539 27.8498 46.968C27.8498 46.968 27.5814 46.4275 27.4268 46.968C27.2734 47.5085 27.4268 47.8943 27.0781 48.3198C27.0781 48.3198 27.156 49.3216 26.8504 49.9005C26.8504 49.9005 26.655 50.5584 27.1152 50.4038C27.1152 50.4038 27.8498 49.5565 27.887 50.2109C27.887 50.2109 27.4268 50.8688 27.3501 51.1372C27.3501 51.1372 27.4675 51.5651 26.9235 51.5231C26.9235 51.5231 26.2667 51.4848 26.2667 52.6065C26.2667 52.6065 26.1529 53.1062 26.6958 52.9133C26.6958 52.9133 27.5047 52.2589 27.3093 52.9516C27.3093 52.9516 26.9235 53.3411 27.156 53.7641C27.156 53.7641 27.7755 54.3046 26.8863 54.2291C26.8863 54.2291 25.924 53.4166 26.0342 54.3801C26.0342 54.3801 27.5442 55.5402 28.1219 55.8505C28.1219 55.8505 28.4706 55.8098 28.4706 56.1561C28.4706 56.1561 28.2765 57.8171 28.4311 58.2426C28.4311 58.2426 28.4311 58.7051 28.044 58.7842L27.6581 58.7051L27.6221 56.3491C27.6221 56.3491 27.6581 55.926 27.2734 55.926L26.1145 55.1926C26.1145 55.1926 25.4207 55.231 25.7694 55.6552C25.7694 55.6552 26.6155 56.0435 26.1145 56.3491C26.1145 56.3491 25.652 56.7769 26.1888 56.8524C26.1888 56.8524 27.3093 57.3174 26.1145 57.2383C26.1145 57.2383 24.9173 57.1628 25.1486 57.8962L24.112 63.6929C24.1396 63.6701 24.1707 63.645 24.1947 63.6246C29.5731 59.0874 36.5155 56.3527 44.1002 56.3527C44.9738 56.3527 45.8379 56.397 46.6923 56.4701L46.6927 48.1274C46.193 48.3204 44.4945 48.3965 44.4945 48.3965C40.4019 48.8207 37.5437 45.0373 37.5437 45.0373C35.7281 41.8712 37.5797 38.9758 37.5797 38.9758C39.2814 37.7031 39.1268 39.6301 39.1268 39.6301C38.8763 39.8842 38.5863 41.9095 38.5863 41.9095C38.5863 47.1226 42.9857 47.7014 42.9857 47.7014H45.5383C45.8067 47.7014 46.6927 47.2766 46.6927 47.2766L46.6931 46.1582C44.7636 47.1984 42.1768 46.3508 42.1768 46.3508C39.0094 45.8103 39.0897 42.0641 39.0897 42.0641C39.2814 41.3319 39.7044 42.3745 39.7044 42.3745C42.4859 46.0033 46.6931 43.6475 46.6931 43.6475V37.6232C46.6931 37.5968 46.0788 37.7786 46.0788 37.7786C45.6497 37.7786 45.458 38.9387 45.458 38.9387C45.458 39.3246 46.0356 39.1316 46.0356 39.1316C46.7451 39.1316 46.0907 39.6973 46.0907 39.6973C45.3285 39.9789 44.9678 39.3617 44.9678 39.3617C44.6215 38.0878 45.7048 37.3016 45.7048 37.3016C46.0296 36.9757 46.6931 37.1378 46.6931 37.1378L46.6923 16.9084C46.6923 16.9084 46.7331 16.6004 46.3843 16.6004Z" fill="#A8D5BA"/>
<path fill-rule="evenodd" clip-rule="evenodd" d="M50.3417 44.7206C50.3417 44.7206 49.6406 44.8357 49.3195 45.1365C49.3195 45.1365 48.9588 45.3725 49.1433 45.5619C49.1433 45.5619 50.005 45.6098 50.4675 45.2431C50.4675 45.2431 51.0584 44.8285 50.3417 44.7206Z" fill="#A8D5BA"/>
<path fill-rule="evenodd" clip-rule="evenodd" d="M50.4675 45.2431C50.0014 45.611 49.1433 45.5619 49.1433 45.5619C48.9552 45.3713 49.3195 45.1365 49.3195 45.1365C49.6406 44.8357 50.3417 44.7206 50.3417 44.7206C51.0548 44.8297 50.4675 45.2431 50.4675 45.2431Z" fill="#A8D5BA"/>
<path fill-rule="evenodd" clip-rule="evenodd" d="M58.8184 52.9765C58.7357 52.8687 58.7009 52.78 58.7009 52.78C58.4325 52.2779 58.7009 51.4114 58.7009 51.4114C58.7417 51.3707 58.7752 51.3275 58.8064 51.2784C58.8651 51.1873 58.8987 51.0866 58.9202 50.992C58.973 50.7547 58.9358 50.5426 58.9358 50.5426C59.2043 49.9637 59.3768 50.6756 59.3768 50.6756C59.3768 50.8506 59.408 50.9476 59.4511 51.004C59.4919 51.0579 59.541 51.0675 59.5746 51.0675C59.5961 51.0675 59.6093 51.0639 59.6093 51.0639C59.7196 51.1705 59.7723 51.27 59.7915 51.3575C59.7975 51.3803 59.7999 51.403 59.7999 51.421C59.8035 51.4629 59.7975 51.5001 59.7879 51.5348C59.7759 51.5864 59.7507 51.6295 59.7256 51.6643C59.6956 51.7026 59.6669 51.7314 59.6453 51.7506C59.6393 51.7553 59.6333 51.7589 59.6273 51.7649C59.6177 51.7733 59.6093 51.7793 59.6093 51.7793C59.6093 51.9459 59.4883 52.0789 59.3984 52.1508C59.3433 52.1964 59.3001 52.2203 59.3001 52.2203C59.1863 52.3893 59.1863 52.5427 59.2294 52.6697C59.2438 52.7141 59.263 52.7524 59.2846 52.7872C59.2966 52.8052 59.3097 52.8255 59.3217 52.8411C59.4056 52.955 59.5039 53.0233 59.5039 53.0233C59.6429 53.3085 59.5746 53.378 59.4691 53.3756C59.3649 53.3756 59.2222 53.3025 59.2222 53.3025C59.0281 53.2174 58.8987 53.0844 58.8184 52.9765ZM56.4048 35.2533C55.4748 36.1785 55.6726 37.2978 55.6726 37.2978C55.4748 38.0085 55.0374 37.4152 55.0374 37.4152C54.775 36.8136 55.0374 35.7579 55.0374 35.7579C55.4664 35.07 56.0309 34.768 56.0309 34.768C56.3641 34.1712 56.0309 34.2275 56.0309 34.0645C56.0309 33.8991 55.4005 33.4377 55.4005 33.4377C54.8613 32.3951 55.9422 32.8973 55.9422 32.8973C57.7746 33.9986 57.8932 35.7327 57.8932 35.7327C58.2192 36.4697 58.4888 39.286 58.4888 39.286C58.3522 40.3669 57.9855 39.286 57.9855 39.286C57.5061 37.9174 57.2533 35.4834 57.2533 35.4834C56.8674 34.7883 56.4048 35.2533 56.4048 35.2533ZM54.4562 30.1541C54.1854 29.1702 54.4562 28.3194 54.4562 28.3194C54.9475 27.8304 54.4562 27.085 54.4562 27.085C54.2225 26.487 53.4411 25.8003 53.4411 25.8003C52.8539 24.9039 53.8762 25.3689 53.8762 25.3689C54.0092 25.8698 55.071 26.8921 55.071 26.8921C55.5 27.8963 54.9787 28.4188 54.9787 28.4188C54.6479 29.326 54.9787 29.7874 54.9787 29.7874C55.1884 30.3674 55.1321 30.4453 55.1321 30.4453C55.228 31.1788 54.8025 30.7737 54.8025 30.7737C54.5892 30.5628 54.4562 30.1541 54.4562 30.1541ZM53.9349 30.2128C53.9349 30.2128 53.5298 30.7545 53.5298 30.0594C53.5298 30.0594 53.543 29.5226 53.682 29.4015C53.682 29.4015 54.1075 28.9401 54.1075 29.5561C54.1075 29.5561 54.1542 29.9923 53.9349 30.2128ZM53.4316 27.103C53.3141 27.4505 53.259 28.2259 53.259 28.2259C52.5795 28.8982 52.5423 28.0138 52.5423 28.0138C52.6778 27.2013 53.0085 26.7962 53.0085 26.7962C53.6628 26.3132 53.4316 27.103 53.4316 27.103ZM55.4724 25.8003C55.4844 25.7464 55.5 25.6973 55.5096 25.6553C55.5336 25.5738 55.5551 25.5223 55.5551 25.5223C55.6762 25.4024 55.7529 25.3713 55.7996 25.3809C55.8152 25.3845 55.8272 25.3929 55.8391 25.4024C55.8799 25.4444 55.8859 25.5223 55.8859 25.5223C56.0057 25.6457 56.291 26.5242 56.291 26.5242C56.2598 26.6236 56.225 26.6871 56.1891 26.7303C56.0189 26.916 55.7684 26.6787 55.7684 26.6787C55.4844 26.5146 55.4353 26.2281 55.4509 25.9789C55.4533 25.9142 55.4628 25.8542 55.4724 25.8003ZM62.7827 57.7749C62.7827 57.0679 62.4987 57.4897 62.4987 57.4897C62.0229 58.3538 61.5472 58.4448 61.5472 58.4448C60.6591 58.8942 61.2511 58.1476 61.2511 58.1476C61.5316 58.1476 61.5843 57.8133 61.5843 57.8133C61.5843 57.2968 61.7916 57.2968 61.7916 57.2968C62.2302 56.8618 61.7916 56.4759 61.7916 56.4759C61.1337 56.1535 61.4824 55.8311 61.4824 55.8311C62.1248 55.5375 62.1128 56.1283 62.1128 56.1283C62.1128 56.6568 62.434 56.4507 62.434 56.4507V55.5495C62.5634 54.8532 61.7916 55.1097 61.7916 55.1097C61.637 55.2655 60.634 55.9354 60.634 55.9354C60.272 56.0361 60.272 56.2961 60.272 56.2961V57.1721C60.1426 57.993 59.7076 57.3231 59.7076 57.3231C59.7076 56.8354 59.5003 56.2709 59.5003 56.2709C58.961 56.0109 59.5003 55.7556 59.5003 55.7556C61.637 54.6986 61.7641 54.3643 61.7641 54.3643C62.5634 53.5685 61.5723 53.8873 61.5723 53.8873C61.0965 54.1474 61.3159 53.6309 61.3159 53.6309C61.3159 53.233 60.918 53.233 60.918 53.233C60.5285 52.8447 60.918 52.7177 60.918 52.7177C61.1613 52.9609 61.637 52.8986 61.637 52.8986C62.2542 53.1527 61.7389 52.1772 61.7389 52.1772C61.7389 51.3515 61.4021 51.4306 61.4021 51.4306C60.7886 51.252 60.6951 50.7235 60.6951 50.7235C60.3224 50.195 61.0714 50.3496 61.0714 50.3496C61.5603 50.2202 61.2236 49.4245 61.2236 49.4245C60.906 49.1009 60.918 47.7982 60.918 47.7982C60.7634 47.2338 60.272 47.7982 60.272 47.7982C59.837 47.9792 59.1647 49.1644 59.1647 49.1644C58.4205 49.5503 59.1647 48.2896 59.1647 48.2896C60.2193 46.5651 59.3708 43.9645 59.3708 43.9645C59.3217 43.424 58.5991 43.6841 58.5991 43.6841C58.3402 43.9394 57.6727 44.1191 57.6727 44.1191C57.1334 43.9645 57.7997 43.5535 57.7997 43.5535C58.4085 43.2071 58.8807 42.2161 58.8807 42.2161C59.5506 41.5461 59.0353 39.4609 59.0353 39.4609C58.7261 37.6573 57.8249 32.3041 57.8249 32.3041C57.8249 31.6617 57.3396 31.4017 57.3396 31.4017C56.3341 30.6311 55.8703 29.0887 55.8703 29.0887C55.8703 28.3673 56.4384 29.0887 56.4384 29.0887C56.4384 29.5501 57.3647 30.8612 57.3647 30.8612C57.8525 31.0697 57.4666 30.3495 57.4666 30.3495C57.028 29.4207 56.4144 24.9159 56.4144 24.9159C56.2035 24.4545 55.5863 24.0938 55.5863 24.0938C52.6023 23.1674 49.641 24.1957 49.641 24.1957C48.9339 24.6726 48.9963 25.0705 48.9963 25.0705L48.9989 32.9226C49.2302 33.004 49.6098 33.2831 49.6098 33.2831C50.5362 33.959 51.29 36.3523 51.29 36.3523C52.021 38.7263 50.7004 40.5503 50.7004 40.5503C50.4188 41.0632 50.3049 40.1548 50.3049 40.1548C50.1875 39.4214 49.647 38.5334 49.647 38.5334C49.3378 37.8203 49.647 37.2595 49.647 37.2595C50.4991 35.0784 48.9989 33.8477 48.9989 33.8477L48.9963 38.6496C48.9963 38.6496 50.2462 39.437 49.7057 42.3551C49.7057 42.3551 49.5643 43.0981 50.0053 42.6559C50.0053 42.6559 51.3667 41.0812 51.8856 38.1283C51.8856 38.1283 51.9971 36.1222 50.4991 33.4377C50.4991 33.4377 49.4565 31.2351 49.4565 30.9091C49.4565 30.9091 49.0694 29.7107 49.5727 28.7652C49.5727 28.7652 50.3421 27.3175 51.6531 28.3014C51.6531 28.3014 52.6322 29.1427 51.9839 29.7874C51.9839 29.7874 51.9156 30.069 52.1193 30.2704C52.1193 30.2704 52.3518 30.7545 51.9252 30.7737C51.9252 30.7737 51.4626 30.9283 51.4434 30.425C51.4434 30.425 51.308 30.1541 50.9401 30.1349C50.9401 30.1349 50.4775 30.2128 50.3636 29.7311C50.3636 29.7311 50.2642 29.2685 50.5913 29.1702C50.5913 29.1702 50.8262 29.1139 50.885 29.3632C50.885 29.3632 50.6537 30.1541 51.3451 29.809C51.3451 29.809 51.9467 29.519 51.5608 28.8982C51.5608 28.8982 51.1941 28.1264 50.4008 28.4752C50.4008 28.4752 49.5919 28.9977 49.9586 30.5807C49.9586 30.5807 50.4188 32.6061 51.2493 33.8428C51.2493 33.8428 52.6778 36.1593 52.6778 37.7628C52.6778 37.7628 52.6598 40.8511 50.4583 43.0693C50.4583 43.0693 49.6841 44.1131 49.5487 44.1131C49.5487 44.1131 49.1557 44.6524 48.9963 44.1131L48.9984 47.1951C48.9984 47.1951 49.3318 47.2589 49.9094 47.1954C49.9094 47.1954 50.2929 47.3308 49.7465 47.6185C49.7465 47.6185 49.2201 47.8398 48.9984 47.8398L48.9963 56.7419C49.4409 56.8138 49.8795 56.8869 50.3109 56.9744C55.3826 58.0122 59.9976 60.288 63.8349 63.4709L62.7827 57.7749Z" fill="#A8D5BA"/>
<path fill-rule="evenodd" clip-rule="evenodd" d="M24.1947 63.6246C24.1635 63.6462 24.1396 63.6665 24.112 63.6929L24.1052 63.7254C24.1052 63.7254 24.1396 63.6905 24.1947 63.6246Z" fill="#A8D5BA"/>
<path fill-rule="evenodd" clip-rule="evenodd" d="M12.9401 56.4325C13.0731 56.3881 13.1558 56.3414 13.1894 56.2935C13.2265 56.2455 13.2361 56.1832 13.2241 56.1041L13.1247 55.6331L13.3692 55.5517C13.3967 55.6751 13.4518 55.8632 13.5333 56.1161C13.6136 56.3726 13.6987 56.635 13.7922 56.9035C13.8845 57.1719 13.9767 57.4343 14.069 57.6848C14.1649 57.9341 14.2368 58.115 14.2883 58.2217L14.0415 58.308L13.7371 57.7196C13.6987 57.6441 13.6496 57.5997 13.5969 57.5901C13.5453 57.5794 13.4614 57.5961 13.344 57.6369L8.84997 59.1804C8.71455 59.2284 8.62467 59.2715 8.58393 59.3194C8.54438 59.3638 8.5312 59.4453 8.54438 59.5687L8.64265 60.2901L8.40177 60.3716C8.35863 60.2099 8.29631 59.9989 8.21122 59.7329C8.13093 59.4704 8.03745 59.2044 7.95117 58.9419C7.90803 58.8161 7.86488 58.6891 7.81934 58.5537C7.77261 58.4182 7.72227 58.2876 7.67673 58.1618C7.63 58.0347 7.58446 57.9161 7.54132 57.8047C7.49458 57.6932 7.45383 57.5997 7.42028 57.5206L7.66475 57.4379L7.94278 57.9413C7.97873 58.0096 8.03745 58.0491 8.10576 58.0515C8.17287 58.0551 8.28433 58.0288 8.43892 57.9784L10.445 57.2893L9.45157 54.3904L7.44185 55.0795C7.28725 55.1334 7.18299 55.1837 7.13386 55.2293C7.08113 55.2772 7.06195 55.3419 7.08113 55.4282L7.16741 55.9927L6.92294 56.0766C6.90137 55.9927 6.8774 55.8956 6.84025 55.7782C6.80909 55.6643 6.77554 55.5421 6.73479 55.415C6.69165 55.2856 6.6485 55.1538 6.60177 55.0136C6.55623 54.8782 6.50949 54.7439 6.46395 54.6193C6.38006 54.3688 6.29018 54.1124 6.19191 53.8499C6.09364 53.5851 6.00976 53.3801 5.94504 53.2244L6.19191 53.1417L6.55623 53.772C6.60536 53.8655 6.66408 53.917 6.7288 53.929C6.7995 53.941 6.89897 53.9266 7.0284 53.8811L11.532 52.3339C11.6626 52.2884 11.7477 52.2405 11.7825 52.1973C11.816 52.1494 11.8292 52.0871 11.816 52.0044L11.7178 51.537L11.9646 51.4507C11.9898 51.5742 12.0449 51.7671 12.1252 52.0224C12.2115 52.2824 12.2978 52.5544 12.396 52.8349C12.4895 53.1117 12.5818 53.3742 12.6813 53.6282C12.7735 53.8811 12.8443 54.0644 12.897 54.1735L12.6501 54.255L12.3289 53.6222C12.2882 53.5467 12.2415 53.5036 12.1863 53.4928C12.1312 53.4832 12.0473 53.4988 11.9335 53.5371L9.877 54.243L10.8741 57.1407L12.9401 56.4325Z" fill="#A8D5BA"/>
<path fill-rule="evenodd" clip-rule="evenodd" d="M15.9034 60.7422L15.6661 60.8908L15.2862 60.4258C15.2119 60.3311 15.1292 60.2832 15.0394 60.2808C14.9471 60.2808 14.8296 60.3227 14.693 60.4102L11.7857 62.215C11.3315 62.5003 11.0571 62.8286 10.9636 63.2013C10.8653 63.574 10.9588 63.9815 11.2296 64.4189C11.3962 64.6897 11.5724 64.8959 11.7581 65.0409C11.9391 65.1907 12.15 65.2722 12.3813 65.2973C12.6126 65.3201 12.8786 65.2757 13.1782 65.1643C13.4707 65.0528 13.8194 64.8767 14.2113 64.6334L16.4439 63.2456C16.6692 63.1042 16.7303 62.9041 16.632 62.6488L16.4163 62.0928L16.6512 61.9454C16.7183 62.0928 16.8885 62.3828 17.1593 62.8226C17.2253 62.9257 17.2924 63.0371 17.3667 63.151C17.435 63.2612 17.4997 63.3655 17.5644 63.4578C17.6255 63.5524 17.6783 63.6351 17.731 63.707C17.7765 63.7765 17.8149 63.8281 17.8424 63.858L17.6016 64.0054L17.1941 63.5836C17.0886 63.4722 16.9221 63.4925 16.6872 63.6411L14.24 65.1643C13.5018 65.6197 12.8475 65.8126 12.2794 65.7395C11.709 65.6676 11.2057 65.2817 10.7731 64.5855C10.3009 63.8281 10.0936 63.1582 10.1499 62.5698C10.205 61.9813 10.5226 61.508 11.1002 61.1496L14.0447 59.3161C14.1813 59.231 14.2676 59.1591 14.3107 59.092C14.3539 59.0285 14.3539 58.953 14.3167 58.8691L14.0794 58.3358L14.3167 58.1908C14.4222 58.3837 14.5456 58.5982 14.693 58.8391C14.8356 59.08 14.983 59.3197 15.1292 59.5534C15.2 59.6708 15.2767 59.7919 15.3545 59.9105C15.4253 60.0339 15.496 60.1478 15.5703 60.2556C15.6374 60.3623 15.7033 60.4582 15.7608 60.5433C15.8207 60.6283 15.8663 60.6943 15.9034 60.7422Z" fill="#A8D5BA"/>
<path fill-rule="evenodd" clip-rule="evenodd" d="M17.3113 67.0596C17.3365 67.1063 17.3856 67.1722 17.4623 67.2585C17.5342 67.3436 17.6445 67.4634 17.7931 67.6252C18.0495 67.8996 18.324 68.0327 18.608 68.0159C18.892 68.0039 19.1904 67.8565 19.4936 67.5737C19.7405 67.3436 19.8555 67.0847 19.8387 66.8007C19.8172 66.5143 19.7093 66.2626 19.5092 66.0433C19.327 65.8516 19.1329 65.6874 18.9292 65.5544L17.3113 67.0596ZM16.9901 67.3568L15.4801 68.7589C15.298 68.9303 15.2213 69.1268 15.2524 69.3437C15.2836 69.563 15.413 69.7967 15.6443 70.0436C15.9152 70.3336 16.2184 70.4798 16.5515 70.4798C16.8859 70.4798 17.2058 70.3396 17.509 70.0556C18.2437 69.3761 18.2533 68.6522 17.539 67.8865C17.4623 67.805 17.376 67.7199 17.2801 67.6252C17.1879 67.5341 17.092 67.4442 16.9901 67.3568ZM17.539 63.9869L17.7595 63.7843L18.179 64.1918C18.626 64.6256 18.9903 64.9827 19.2743 65.2608C19.5523 65.5376 19.7321 65.7186 19.8052 65.7941C19.9969 66.0038 20.1755 66.2279 20.3421 66.4688C20.5063 66.7084 20.6273 66.9457 20.7064 67.1866C20.7843 67.4251 20.8023 67.66 20.7687 67.8865C20.7316 68.1154 20.6081 68.3239 20.4068 68.5108C20.2929 68.6199 20.1575 68.6954 20.0065 68.7433C19.8555 68.7877 19.6973 68.8068 19.5331 68.7949C19.3738 68.7853 19.2036 68.7469 19.0334 68.6858C18.8608 68.6235 18.6967 68.5384 18.5433 68.4305C18.7003 68.6558 18.8273 68.8799 18.9316 69.1016C19.0334 69.3221 19.0921 69.5367 19.1137 69.7512C19.1269 69.9645 19.0957 70.1766 19.0154 70.3815C18.9375 70.5829 18.7925 70.7854 18.5888 70.9783C18.3827 71.1689 18.1442 71.2851 17.8698 71.3319C17.5977 71.3774 17.3113 71.3606 17.0141 71.2827C16.7121 71.2024 16.4125 71.0694 16.1129 70.8813C15.8085 70.6943 15.5269 70.457 15.2668 70.1766C15.02 69.9106 14.7731 69.6445 14.5334 69.3821C14.2949 69.1196 14.0516 68.8548 13.8012 68.5887L13.2583 67.9979L13.4836 67.7894L13.9066 68.0734C14.0085 68.1369 14.1068 68.1645 14.1931 68.1609C14.2793 68.1585 14.3908 68.0926 14.5334 67.962L17.8422 64.8809C17.8794 64.8521 17.9069 64.8209 17.9345 64.7958C17.9596 64.767 17.9656 64.7323 17.9656 64.6951C17.9656 64.6532 17.9537 64.6052 17.9225 64.5525C17.8949 64.4986 17.8482 64.4231 17.7811 64.3344L17.539 63.9869Z" fill="#A8D5BA"/>
<path fill-rule="evenodd" clip-rule="evenodd" d="M24.1705 75.2588C24.0471 75.3583 23.9236 75.4673 23.8002 75.5908C23.6708 75.7166 23.5461 75.84 23.4299 75.9671C23.3064 76.0905 23.195 76.2139 23.0871 76.3362C22.9781 76.4572 22.8858 76.5639 22.8091 76.6561C22.4843 76.3925 22.1452 76.1276 21.7905 75.8556C21.4357 75.5836 21.0343 75.2804 20.5861 74.9424C20.1391 74.6045 19.6945 74.2761 19.2582 73.9501C18.8244 73.6278 18.4349 73.3462 18.0958 73.1077L18.2552 72.8943L18.8292 73.2647C18.9287 73.321 19.0054 73.3497 19.0641 73.3497C19.1168 73.3497 19.1875 73.2862 19.2798 73.1652L22.1608 69.3375C22.2566 69.2117 22.3094 69.1146 22.319 69.0391C22.3273 68.9624 22.3022 68.8929 22.2375 68.8258L21.7257 68.3512L21.8887 68.1307C22.102 68.3081 22.4112 68.5501 22.8091 68.8545C23.2106 69.1589 23.6648 69.5029 24.1705 69.8864C24.6762 70.2663 25.0933 70.5778 25.418 70.8211C25.7476 71.0608 26.022 71.2561 26.2389 71.4059C26.1706 71.4754 26.0903 71.5665 25.9981 71.678C25.9046 71.7846 25.8183 71.9021 25.7296 72.0183C25.6397 72.1394 25.5534 72.2568 25.4732 72.3718C25.3929 72.4893 25.3246 72.5948 25.2634 72.6822L25.164 72.6067C25.2574 72.3695 25.3222 72.1705 25.3557 72.0135C25.3869 71.8505 25.3989 71.7115 25.3809 71.5989C25.3689 71.4814 25.3281 71.3832 25.2694 71.3017C25.2107 71.219 25.134 71.1435 25.0405 71.0704L23.612 69.9978C23.5222 69.9319 23.4419 69.9103 23.3736 69.9355C23.3064 69.9643 23.2226 70.0374 23.1327 70.1572L21.9139 71.775L23.1327 72.6918C23.2465 72.7769 23.3556 72.8344 23.4598 72.8632C23.5653 72.8944 23.6708 72.8728 23.7714 72.7997L24.355 72.4078L24.5779 72.5744C24.071 73.1796 23.5965 73.8135 23.1459 74.475L22.9877 74.3576L23.1399 73.6278C23.1698 73.4756 23.1459 73.3342 23.0656 73.1975C22.9853 73.0657 22.8738 72.9447 22.7384 72.8416L21.7006 72.0603L20.4039 73.78C20.3212 73.8974 20.2805 73.9909 20.2901 74.0664C20.2996 74.1455 20.3668 74.2354 20.5094 74.3384L21.8552 75.3547C21.9726 75.4386 22.0961 75.5081 22.2255 75.5596C22.3609 75.6075 22.5095 75.6291 22.6761 75.6231C22.8403 75.6171 23.0344 75.5752 23.2501 75.4997C23.4694 75.4242 23.7259 75.3031 24.0135 75.1378L24.1705 75.2588Z" fill="#A8D5BA"/>
<path fill-rule="evenodd" clip-rule="evenodd" d="M24.8926 77.0487L27.3134 72.7561C27.3685 72.6578 27.3925 72.5799 27.3841 72.5224C27.3745 72.4648 27.3314 72.4097 27.2547 72.3582L26.7574 71.9723L26.8808 71.7494C26.9299 71.7985 27.5291 72.1497 28.6808 72.7968C29.0235 72.9897 29.2944 73.1348 29.5077 73.2306L29.3747 73.4655L28.7887 73.233C28.7024 73.1947 28.6341 73.1827 28.5849 73.1995C28.5358 73.2186 28.4795 73.2786 28.4207 73.378L25.9976 77.6707C25.9401 77.7762 25.9173 77.8517 25.9305 77.8972C25.9424 77.9416 25.9916 77.9907 26.0719 78.0446L26.5932 78.3958L26.4266 78.6893C26.3187 78.6139 26.1582 78.5096 25.9448 78.3826C25.7327 78.2555 25.4607 78.0985 25.1335 77.9116C24.8064 77.7282 24.5343 77.5772 24.3126 77.4622C24.0933 77.3459 23.9231 77.2608 23.8033 77.2069L23.9675 76.9133L24.5343 77.1782C24.6278 77.2129 24.6949 77.2261 24.7416 77.2129C24.7884 77.1997 24.8375 77.147 24.8926 77.0487Z" fill="#A8D5BA"/>
<path fill-rule="evenodd" clip-rule="evenodd" d="M36.7034 75.9469L36.6327 76.2154L36.0371 76.1471C35.9196 76.1303 35.8274 76.1543 35.7591 76.213C35.6943 76.2753 35.6416 76.3868 35.5985 76.5461L34.7524 79.8609C34.623 80.3798 34.6505 80.8089 34.8447 81.1408C35.0328 81.4752 35.3768 81.7101 35.8801 81.8371C36.1881 81.915 36.4589 81.945 36.6914 81.9186C36.9263 81.897 37.136 81.8155 37.3182 81.6681C37.5027 81.5267 37.6633 81.3122 37.7999 81.0246C37.9354 80.7394 38.0612 80.3738 38.1762 79.9244L38.8246 77.3766C38.8893 77.1202 38.797 76.9332 38.5501 76.8182L38.0061 76.5677L38.0768 76.2981C38.2254 76.3556 38.5501 76.4467 39.0463 76.5761C39.1697 76.6049 39.2931 76.6372 39.4238 76.6708C39.5496 76.7031 39.6706 76.7307 39.7809 76.7571C39.8923 76.7822 39.9846 76.8002 40.0721 76.8206C40.1572 76.8398 40.2171 76.8481 40.2591 76.8517L40.1884 77.1202L39.5987 77.1046C39.4501 77.095 39.3459 77.2244 39.2752 77.4941L38.5645 80.2876C38.3512 81.1288 38.0121 81.7197 37.5495 82.0612C37.0857 82.4051 36.4589 82.4758 35.6668 82.2721C34.7991 82.0516 34.1844 81.7137 33.82 81.2487C33.4533 80.7873 33.3515 80.2264 33.518 79.5661L34.3761 76.2034C34.4132 76.0512 34.4252 75.935 34.4097 75.8619C34.3977 75.7864 34.3449 75.7288 34.2587 75.6953L33.7218 75.476L33.7889 75.2075C33.9998 75.2734 34.2371 75.3441 34.5115 75.4125C34.78 75.4856 35.052 75.5575 35.3204 75.6258C35.4535 75.6593 35.5925 75.6953 35.7279 75.7288C35.8669 75.7648 35.9963 75.7983 36.1234 75.8283C36.2504 75.8559 36.3643 75.881 36.4625 75.9002C36.5608 75.9218 36.6423 75.9374 36.7034 75.9469Z" fill="#A8D5BA"/>
<path fill-rule="evenodd" clip-rule="evenodd" d="M41.3121 82.3661C41.3025 82.5314 41.3181 82.6453 41.3552 82.7016C41.3924 82.7591 41.4691 82.7999 41.5961 82.8179L42.3739 82.9605L42.3595 83.2589C41.9628 83.2169 41.565 83.1858 41.1707 83.163C40.7752 83.1402 40.315 83.1283 39.7937 83.1199L39.8093 82.8215L40.3582 82.752C40.5871 82.7244 40.7321 82.686 40.7968 82.6345C40.8615 82.589 40.8986 82.4895 40.9082 82.3445L41.1203 78.355C41.1359 78.0518 41.118 77.8241 41.0568 77.6695C41.0005 77.5185 40.8807 77.4227 40.6973 77.3795L40.1173 77.2585L40.1365 76.9001L41.9173 76.9972C41.994 77.002 42.0623 77.0092 42.115 77.0188C42.1678 77.0272 42.2169 77.0428 42.26 77.0655C42.3068 77.0871 42.3499 77.1171 42.3895 77.1506C42.4326 77.1866 42.4757 77.2321 42.5249 77.2872L45.9955 81.3654L46.168 78.1273C46.1776 77.95 46.156 77.8205 46.1057 77.7426C46.0506 77.6635 45.9643 77.612 45.8373 77.594L45.1003 77.455L45.1182 77.1386C45.304 77.1662 45.6563 77.1985 46.1836 77.2237C46.4497 77.2405 46.6989 77.2525 46.9338 77.2621C47.1687 77.2717 47.3317 77.2717 47.4276 77.2621L47.4084 77.5784L46.8224 77.588C46.7085 77.594 46.6402 77.6456 46.6126 77.739C46.5815 77.8325 46.5635 77.9691 46.5539 78.1489L46.2639 83.5657L46.0266 83.5513L41.535 78.228L41.3121 82.3661Z" fill="#A8D5BA"/>
<path fill-rule="evenodd" clip-rule="evenodd" d="M49.0609 82.661L48.3418 77.7871C48.3262 77.672 48.2987 77.5965 48.2519 77.5582C48.2124 77.5174 48.1441 77.4983 48.0518 77.5091L47.4214 77.5127L47.3843 77.2562C47.449 77.2658 48.1369 77.1723 49.4467 76.9794C49.8326 76.9242 50.1406 76.8703 50.3635 76.8164L50.4031 77.0788L49.7979 77.2586C49.7056 77.2802 49.6469 77.3113 49.6193 77.3557C49.5846 77.4012 49.5798 77.4827 49.6013 77.6001L50.3168 82.4741C50.3348 82.5951 50.3635 82.667 50.4007 82.6922C50.4378 82.7209 50.5061 82.7305 50.6044 82.7245L51.2312 82.6826L51.2803 83.0145C51.1437 83.0205 50.9591 83.0409 50.7123 83.0685C50.4654 83.096 50.1562 83.1404 49.7835 83.1955C49.4096 83.2518 49.104 83.2986 48.8571 83.3429C48.6127 83.3848 48.4281 83.422 48.2987 83.4543L48.2483 83.1224L48.8607 82.9798C48.9554 82.9546 49.0177 82.9199 49.0453 82.8815C49.0764 82.8467 49.0788 82.7712 49.0609 82.661Z" fill="#A8D5BA"/>
<path fill-rule="evenodd" clip-rule="evenodd" d="M56.7966 74.9866L56.3184 75.2359C56.2249 75.2803 56.1578 75.3402 56.1111 75.4193C56.0619 75.4984 56.0344 75.5847 56.0272 75.6757L55.6449 81.8403L55.3297 81.9398L51.3234 77.3847C51.2 77.2408 51.1017 77.1474 51.0334 77.1174C50.9615 77.0839 50.8764 77.0695 50.7746 77.0755L50.3012 77.1054L50.2089 76.8238C50.4282 76.7723 50.8669 76.6393 51.5176 76.4235C51.8483 76.3205 52.1599 76.215 52.4595 76.1155C52.7615 76.0101 52.9868 75.9286 53.139 75.8651L53.2337 76.1491L53.0216 76.2606C52.7927 76.3744 52.6812 76.493 52.6872 76.6165C52.6944 76.7399 52.7867 76.9089 52.9653 77.1234L55.392 80.0439L55.5526 76.215C55.555 76.0772 55.5526 75.9622 55.543 75.8747C55.537 75.786 55.5059 75.7237 55.4567 75.6853C55.404 75.647 55.3273 75.6278 55.2278 75.6278C55.1296 75.6302 54.9846 75.6506 54.8048 75.6877L54.4129 75.7632L54.3183 75.4828C54.4129 75.4636 54.5615 75.4253 54.7749 75.3594C54.9846 75.2922 55.2554 75.2084 55.5742 75.1029C56.1914 74.904 56.5653 74.7709 56.7067 74.705L56.7966 74.9866Z" fill="#A8D5BA"/>
<path fill-rule="evenodd" clip-rule="evenodd" d="M63.9027 75.6087C63.9399 75.7597 63.989 75.9227 64.0513 76.0857C64.1089 76.2547 64.1748 76.4177 64.2395 76.5771C64.3042 76.7376 64.3689 76.891 64.4372 77.0396C64.5019 77.1894 64.5607 77.3165 64.6122 77.4231C64.2395 77.6125 63.856 77.8114 63.4641 78.0247C63.0698 78.2356 62.6276 78.4753 62.1339 78.7438C61.6401 79.0158 61.1608 79.2819 60.6826 79.5455C60.2141 79.8055 59.7934 80.044 59.4351 80.255L59.3092 80.0225L59.8833 79.6486C59.9768 79.585 60.0319 79.5251 60.0535 79.4784C60.0786 79.4281 60.0499 79.3346 59.9792 79.2028L57.6794 75.0023C57.6027 74.8597 57.5308 74.7711 57.4697 74.7315C57.405 74.6884 57.3307 74.686 57.2408 74.7195L56.5985 74.9928L56.4654 74.7495C56.7159 74.6261 57.0646 74.4451 57.5068 74.209C57.9479 73.9681 58.4476 73.6997 59.0037 73.3929C59.5621 73.0885 60.0163 72.8368 60.3746 72.6403C60.7258 72.4414 61.0194 72.2736 61.2423 72.1346C61.2794 72.2304 61.3286 72.3395 61.3933 72.4665C61.4556 72.5924 61.5227 72.723 61.591 72.856C61.6641 72.9854 61.736 73.1125 61.8091 73.2323C61.8834 73.3557 61.9493 73.4588 62.0045 73.5487L61.893 73.611C61.7168 73.4276 61.5623 73.2886 61.4328 73.1904C61.301 73.0933 61.1776 73.0298 61.0625 72.9938C60.9523 72.9639 60.8468 72.9555 60.7485 72.9758C60.6527 72.9974 60.5472 73.0358 60.4417 73.0933L58.8766 73.9501C58.782 74.0029 58.7292 74.0652 58.7232 74.1407C58.7196 74.215 58.7508 74.3181 58.8275 74.4511L59.7934 76.2247L61.1368 75.4949C61.2603 75.429 61.3525 75.3535 61.4268 75.2684C61.4951 75.1845 61.5227 75.0814 61.4975 74.958L61.3777 74.2641L61.621 74.1323C61.9673 74.8406 62.3472 75.5356 62.7631 76.2187L62.5941 76.3146L61.9889 75.8748C61.8654 75.7861 61.724 75.7478 61.5694 75.7657C61.4113 75.7837 61.2603 75.8328 61.1057 75.9155L59.9696 76.5375L61.0014 78.4298C61.0721 78.5556 61.1428 78.6311 61.2135 78.6551C61.2914 78.6779 61.4029 78.6503 61.5539 78.5676L63.0315 77.7587C63.1585 77.688 63.2736 77.6029 63.3754 77.5034C63.4701 77.404 63.554 77.2745 63.6151 77.1235C63.6774 76.9689 63.717 76.7748 63.7386 76.5447C63.7637 76.3146 63.7577 76.0354 63.7266 75.7034L63.9027 75.6087Z" fill="#A8D5BA"/>
<path fill-rule="evenodd" clip-rule="evenodd" d="M65.162 72.7952C65.434 72.5963 65.6438 72.4034 65.7888 72.22C65.9314 72.0331 66.0237 71.8569 66.0728 71.6915C66.1159 71.5249 66.1159 71.3632 66.0692 71.2122C66.0237 71.0576 65.9458 70.9102 65.8355 70.7687C65.5791 70.4428 65.301 70.2534 65.0086 70.1983C64.7138 70.1468 64.3651 70.2786 63.9672 70.595C63.9241 70.6261 63.8689 70.6717 63.8078 70.7268C63.7395 70.7807 63.6868 70.8323 63.6436 70.873L65.162 72.7952ZM65.4832 76.5474L65.6965 76.303C65.8355 76.1676 65.9122 76.0609 65.9278 75.9746C65.9398 75.8931 65.8823 75.7697 65.7492 75.6007L63.0169 72.1409C62.9522 72.0654 62.8958 71.9983 62.8443 71.942C62.7916 71.8845 62.7364 71.8509 62.6777 71.8329C62.6178 71.8185 62.5507 71.8185 62.4764 71.8413C62.3997 71.8629 62.3038 71.9096 62.1924 71.9839L62.0162 72.0966C61.9862 72.0558 61.9515 72.0139 61.9179 71.9767C61.8844 71.942 61.8532 71.9 61.8221 71.8593L62.0605 71.6699C62.1528 71.5968 62.2139 71.5405 62.2415 71.5082C62.2691 71.4734 62.3218 71.4255 62.3997 71.3631L63.5418 70.3733C63.5909 70.3313 63.64 70.2918 63.6892 70.2498C63.7359 70.2103 63.7791 70.1719 63.8282 70.1348C64.1002 69.9179 64.3723 69.7357 64.6503 69.5799C64.9247 69.4253 65.1932 69.3211 65.452 69.2695C65.7145 69.224 65.9613 69.236 66.1998 69.3079C66.4347 69.3846 66.6468 69.538 66.835 69.7789C66.9596 69.9335 67.0423 70.0868 67.0878 70.2318C67.1286 70.3769 67.1466 70.5291 67.1346 70.6872C67.1226 70.8406 67.0878 71.006 67.0207 71.1726C66.9596 71.3452 66.8793 71.5273 66.7835 71.7299L68.7153 72.4753C69.0053 72.5927 69.2438 72.6694 69.4187 72.7102C69.5949 72.7533 69.7495 72.7701 69.8789 72.7569C70.0084 72.7473 70.1318 72.7137 70.2408 72.6562C70.3487 72.5987 70.4805 72.5268 70.6351 72.4405L70.8113 72.6658C70.7502 72.7066 70.6915 72.7473 70.6351 72.7928C70.5776 72.8396 70.5153 72.8863 70.447 72.9402L69.4595 73.7216C69.3552 73.8031 69.2617 73.8786 69.1815 73.9445C69.1012 74.0152 69.046 74.0596 69.0209 74.0775L66.2214 72.8432C66.1099 72.8048 66.0057 72.7893 65.9158 72.7952C65.8223 72.8012 65.7301 72.8396 65.6438 72.9091L65.4029 73.0972L66.7175 74.7654C66.8134 74.8889 66.9117 74.9608 67.0052 74.9763C67.101 74.9943 67.2245 74.9691 67.3731 74.9032L67.8261 74.6947L68.0058 74.9224C67.8105 75.0578 67.6044 75.2064 67.391 75.3682C67.1753 75.53 66.968 75.6906 66.7607 75.8512C66.5605 76.0142 66.3604 76.1735 66.1711 76.3329C65.9805 76.4935 65.8103 76.6385 65.6617 76.7715L65.4832 76.5474Z" fill="#A8D5BA"/>
<path fill-rule="evenodd" clip-rule="evenodd" d="M70.4536 66.2568C70.0701 66.0231 69.7333 65.9224 69.4433 65.9536C69.1545 65.9823 68.8765 66.1369 68.6128 66.4149C68.4187 66.6163 68.3048 66.8452 68.2677 67.0968C68.2281 67.3497 68.2988 67.5654 68.4894 67.7416C68.6044 67.853 68.7279 67.9189 68.8573 67.9477C68.9867 67.9741 69.1233 67.9705 69.2683 67.9345C69.4157 67.901 69.5739 67.847 69.7429 67.7715C69.9167 67.696 70.1012 67.6122 70.3026 67.5247C70.6046 67.3881 70.873 67.2838 71.1103 67.2107C71.3452 67.1412 71.5681 67.1076 71.7778 67.1136C71.9839 67.1196 72.1877 67.1675 72.3794 67.2622C72.5771 67.3533 72.7749 67.4983 72.9846 67.6924C73.2063 67.901 73.3645 68.1275 73.4628 68.3779C73.5586 68.6248 73.6018 68.8813 73.5766 69.1497C73.5586 69.4146 73.4843 69.6866 73.3549 69.9586C73.2219 70.2295 73.0373 70.4919 72.8024 70.7424C72.3614 71.2074 71.8485 71.5261 71.2589 71.6963L70.1875 70.5375L70.3385 70.3781C70.5051 70.5171 70.6873 70.6189 70.8886 70.6849C71.0827 70.7484 71.2865 70.7759 71.4878 70.7675C71.6915 70.7604 71.8893 70.716 72.0714 70.6369C72.2524 70.5554 72.4225 70.438 72.5676 70.287C72.6814 70.1672 72.7713 70.0341 72.8492 69.8915C72.9235 69.7501 72.9726 69.6075 72.9906 69.4673C73.0086 69.3259 73.0002 69.1869 72.9594 69.0538C72.9163 68.9184 72.8396 68.7974 72.7257 68.6883C72.5712 68.5445 72.4202 68.4534 72.2715 68.4151C72.1265 68.3779 71.9719 68.3755 71.8054 68.4115C71.6388 68.451 71.4506 68.5169 71.2469 68.608C71.0396 68.7003 70.8047 68.8034 70.5399 68.9184C70.2462 69.0478 69.9802 69.1353 69.7501 69.1797C69.5176 69.2252 69.3079 69.2348 69.1233 69.2084C68.9376 69.1833 68.7674 69.1293 68.6164 69.0442C68.4654 68.9592 68.3264 68.8573 68.191 68.7339C67.9681 68.5193 67.8207 68.2928 67.7464 68.052C67.6745 67.8111 67.6565 67.569 67.6996 67.3257C67.7368 67.0789 67.8231 66.8452 67.9525 66.6139C68.0795 66.3862 68.2305 66.1801 68.4043 66.0015C68.7926 65.5868 69.2276 65.3376 69.7058 65.2537L70.577 66.1273L70.4536 66.2568Z" fill="#A8D5BA"/>
<path fill-rule="evenodd" clip-rule="evenodd" d="M74.9171 67.1011L70.9912 64.1243C70.8977 64.0548 70.8234 64.0201 70.7647 64.0236C70.7096 64.0236 70.6472 64.0572 70.5897 64.1267L70.1379 64.5737L69.9342 64.4155C69.9869 64.3772 70.4135 63.8307 71.2129 62.7749C71.4502 62.4645 71.6323 62.2117 71.7558 62.0151L71.9691 62.1781L71.6599 62.727C71.6107 62.8061 71.5892 62.872 71.5988 62.9235C71.6072 62.9774 71.6635 63.041 71.7558 63.1129L75.6829 66.0909C75.7788 66.1628 75.8495 66.1952 75.8926 66.1892C75.9394 66.1832 75.9969 66.1412 76.0628 66.0693L76.4763 65.6007L76.7447 65.8033C76.6584 65.9003 76.535 66.0454 76.3804 66.2383C76.2222 66.4312 76.0317 66.6781 75.8028 66.9789C75.5775 67.2785 75.3893 67.5314 75.2443 67.7315C75.1017 67.9328 74.9938 68.091 74.9267 68.2049L74.6583 68L74.9938 67.4715C75.043 67.3864 75.0658 67.3205 75.0586 67.2725C75.0526 67.2282 75.0034 67.1683 74.9171 67.1011Z" fill="#A8D5BA"/>
<path fill-rule="evenodd" clip-rule="evenodd" d="M71.8363 61.7177C71.7033 61.5883 71.6505 61.5068 71.6757 61.4684C71.7009 61.4301 71.7896 61.4109 71.9406 61.4109C72.0125 61.4133 72.0736 61.4133 72.1167 61.4109C72.1611 61.4049 72.2006 61.3893 72.2318 61.3678C72.2653 61.3414 72.2929 61.3102 72.324 61.2683C72.3492 61.2287 72.3792 61.1736 72.4163 61.1113L74.3002 57.7666C74.3577 57.6587 74.4045 57.57 74.4356 57.5041C74.4668 57.4382 74.4824 57.3771 74.4824 57.3291C74.4824 57.28 74.4752 57.2357 74.4572 57.1937C74.438 57.1566 74.4081 57.1086 74.3709 57.0547C74.2906 56.9408 74.2595 56.8618 74.2906 56.8138C74.3302 56.7419 74.4081 56.7359 74.5219 56.8018L76.0595 57.6911C76.1062 57.715 76.1398 57.745 76.1553 57.7749C76.1697 57.8085 76.1673 57.8361 76.1457 57.854C76.1182 57.8768 76.075 57.8864 76.0127 57.884C75.948 57.884 75.8521 57.86 75.7287 57.8205C75.6029 57.7881 75.4878 57.763 75.386 57.7474C75.2841 57.7306 75.1882 57.7342 75.1055 57.7606C75.0192 57.7845 74.9389 57.8325 74.8551 57.908C74.7748 57.9835 74.6921 58.1009 74.6022 58.2555L74.1085 59.1387L78.2885 61.4936C78.4395 61.5787 78.5509 61.6158 78.63 61.6098C78.7043 61.6038 78.7906 61.5463 78.8841 61.4433L79.4114 60.8512L79.6367 60.9783C79.5624 61.0849 79.4641 61.2431 79.3443 61.4492C79.2232 61.6542 79.0938 61.8819 78.9548 62.1287L78.3904 63.1294C78.2537 63.3739 78.1399 63.5824 78.0404 63.7598C77.9457 63.9371 77.8894 64.0558 77.8714 64.1133L77.6461 63.9863L77.8966 63.2624C77.9577 63.0803 77.9733 62.9413 77.929 62.849C77.887 62.7579 77.7936 62.6716 77.6581 62.5925L73.4817 60.2448L72.9784 61.1425C72.9232 61.2287 72.8849 61.3102 72.8609 61.3917C72.8394 61.4708 72.8358 61.5667 72.8549 61.6698C72.8705 61.7752 72.9041 61.8951 72.9628 62.0341C73.0155 62.1695 73.0922 62.3373 73.1917 62.5386C73.2588 62.6824 73.2935 62.7795 73.2995 62.837C73.3055 62.8933 73.2935 62.9209 73.2588 62.9185C73.2288 62.9161 73.1797 62.8909 73.1198 62.843C73.0587 62.7974 72.9903 62.7435 72.9196 62.6824L71.8363 61.7177Z" fill="#A8D5BA"/>
<path fill-rule="evenodd" clip-rule="evenodd" d="M81.5388 54.8971L81.8072 54.4093L82.0697 54.4908C81.9427 54.8515 81.8288 55.1871 81.7306 55.4915C81.6311 55.7971 81.5508 56.0463 81.4885 56.2429C81.4309 56.4322 81.365 56.642 81.2979 56.8721C81.2272 57.1057 81.1673 57.3262 81.1134 57.5396L80.8689 57.4593L80.9372 56.8493C80.9516 56.7366 80.9396 56.6348 80.9061 56.5473C80.8713 56.461 80.8138 56.4035 80.7299 56.3783L79.2451 55.9145C79.1768 55.887 79.1001 55.875 79.0078 55.887C78.9203 55.8953 78.822 55.9109 78.7178 55.9361L75.8464 56.6348C75.6115 56.6923 75.4257 56.7582 75.3023 56.8277C75.1789 56.9008 75.1022 56.9763 75.0626 57.0542L74.8733 57.4533L74.6108 57.3706C74.6636 57.2543 74.7966 56.8697 75.0063 56.2045C75.053 56.0463 75.1082 55.8822 75.1609 55.7156C75.216 55.5442 75.2628 55.3836 75.3059 55.229C75.3526 55.0756 75.3922 54.9402 75.4233 54.8204C75.4569 54.6969 75.4845 54.6047 75.4965 54.5388L75.7625 54.6238L75.7505 54.963C75.7289 55.1427 75.7625 55.247 75.8464 55.2746C75.8955 55.289 75.9327 55.2854 75.9638 55.2698L78.7298 54.631C78.4517 54.3123 78.1701 53.9959 77.8933 53.6795C77.6152 53.3655 77.3336 53.0431 77.0568 52.7208C76.9969 52.6561 76.9477 52.6081 76.895 52.5722C76.8494 52.5422 76.8027 52.5206 76.7572 52.5027C76.6577 52.4727 76.5654 52.529 76.4755 52.6776L76.2419 53.0911L75.9758 53.0096C76.0166 52.9557 76.1184 52.6525 76.297 52.0892C76.3833 51.8052 76.454 51.5739 76.5031 51.3905C76.5558 51.2108 76.5834 51.0814 76.593 51.0071L76.859 51.0909L76.8339 51.4385C76.8303 51.5403 76.859 51.6818 76.9261 51.8627C76.9885 52.0389 77.1299 52.2474 77.3492 52.4811L78.9826 54.3554C79.0389 54.4273 79.1096 54.4884 79.1983 54.5364C79.2882 54.5867 79.4332 54.6406 79.6345 54.7041L81.0906 55.1631C81.2764 55.2183 81.4238 55.1296 81.5388 54.8971Z" fill="#A8D5BA"/>
</svg>
